<svg width="48" height="48" viewBox="0 0 48 48" fill="none" xmlns="http://www.w3.org/2000/svg">
<g clip-path="url(#clip0_1_3)">
<path fill-rule="evenodd" clip-rule="evenodd" d="M24 44C35.0457 44 44 35.0457 44 24C44 12.9543 35.0457 4 24 4C12.9543 4 4 12.9543 4 24C4 35.0457 12.9543 44 24 44ZM24 48C37.2548 48 48 37.2548 48 24C48 10.7452 37.2548 2.31755e-06 24 0C10.7452 -2.31755e-06 2.31755e-06 10.7452 0 24C-2.31755e-06 37.2548 10.7452 48 24 48Z" fill="#222222"/>
<path d="M28 18C28 20.2091 26.2091 22 24 22C21.7909 22 20 20.2091 20 18C20 15.7909 21.7909 14 24 14C26.2091 14 28 15.7909 28 18Z" fill="#222222"/>
<path d="M30 26C30 29.3137 27.3137 32 24 32C20.6863 32 18 29.3137 18 26C18 22.6863 20.6863 20 24 20C27.3137 20 30 22.6863 30 26Z" fill="#222222"/>
<path d="M26 30L26 44H22V30H26Z" fill="#222222"/>
</g>
<defs>
<clipPath id="clip0_1_3">
<rect width="48" height="48" fill="white"/>
</clipPath>
</defs>
</svg>
